# xmcd
#
# Track frame offsets: 
#        150
#        16587
#        34044
#        56513
#        78459
#        92427
#        113308
#        130788
#        155512
#        174791
#        195390
#        212501
#        231413
#        253978
#        270408
#        288328
#        305341
#        326866
#
# Disc length: 4554 seconds
#
# Revision: 2
# Processed by: cddbd v1.5.2PL0 Copyright (c) Steve Scherf et al.
# Submitted via: ExactAudioCopyFreeDBPlugin 1.0
#
DISCID=e111c812
DTITLE=Various Artist - 2002 roots and new
DYEAR=2002
DGENRE=Blues
TTITLE0=Popa Chubby - I can't see the light of day
TTITLE1=Duke Robillard - Buy me a dog
TTITLE2=Larry McCray - Blues is my business
TTITLE3=Amor - 24 hours
TTITLE4=Bill Perry - Itchin' for it
TTITLE5=Big Bill Morganfield - Strong man holler
TTITLE6=Reggae Cowboys - We all come down
TTITLE7=Tommy Castro band - Whole lotta soul
TTITLE8=Tino Gonzales - Lies lies lies
TTITLE9=Bonny B - Cambodia
TTITLE10=Little Bob - Foolish waltz
TTITLE11=Gashouse Dave - Girl in cotton dress
TTITLE12=Matt Smith - Junkie for your love
TTITLE13=Calvin Russell - Baroom girl
TTITLE14=Big Ed Sullivan - Swamp stompin'
TTITLE15=Mason Casey - Truck
TTITLE16=Van Wilks - Badly mistaken
TTITLE17=Jason Ringenberg - Honky tonk maniac from mars
EXTD=
EXTT0=
EXTT1=
EXTT2=
EXTT3=
EXTT4=
EXTT5=
EXTT6=
EXTT7=
EXTT8=
EXTT9=
EXTT10=
EXTT11=
EXTT12=
EXTT13=
EXTT14=
EXTT15=
EXTT16=
EXTT17=
PLAYORDER=
